<svg width="430" height="109" viewBox="0 0 430 109" fill="none" xmlns="http://www.w3.org/2000/svg">
<g filter="url(#filter0_d_12311_432)">
<path fill-rule="evenodd" clip-rule="evenodd" d="M166.682 34C173.819 34 179.558 28.422 182.728 22.0282C188.613 10.1592 200.854 2 215 2C229.146 2 241.387 10.1592 247.272 22.0282C250.442 28.422 256.181 34 263.318 34H428C428.552 34 429 34.4477 429 35V108C429 108.552 428.552 109 428 109H2C1.44771 109 1 108.552 1 108V35C1 34.4477 1.44772 34 2 34H166.682Z" fill="#F8F8F8"/>
</g>
<defs>
<filter id="filter0_d_12311_432" x="-5" y="0" width="440" height="119" filterUnits="userSpaceOnUse" color-interpolation-filters="sRGB">
<feFlood flood-opacity="0" result="BackgroundImageFix"/>
<feColorMatrix in="SourceAlpha" type="matrix" values="0 0 0 0 0 0 0 0 0 0 0 0 0 0 0 0 0 0 127 0" result="hardAlpha"/>
<feOffset dy="4"/>
<feGaussianBlur stdDeviation="3"/>
<feComposite in2="hardAlpha" operator="out"/>
<feColorMatrix type="matrix" values="0 0 0 0 0 0 0 0 0 0 0 0 0 0 0 0 0 0 0.25 0"/>
<feBlend mode="normal" in2="BackgroundImageFix" result="effect1_dropShadow_12311_432"/>
<feBlend mode="normal" in="SourceGraphic" in2="effect1_dropShadow_12311_432" result="shape"/>
</filter>
</defs>
</svg>
